<?xml version="1.0" encoding="utf-8"?>
<!-- Generator: Adobe Illustrator 16.0.0, SVG Export Plug-In . SVG Version: 6.00 Build 0)  -->
<!DOCTYPE svg PUBLIC "-//W3C//DTD SVG 1.1//EN" "http://www.w3.org/Graphics/SVG/1.1/DTD/svg11.dtd">
<svg version="1.1" id="Layer_1" xmlns="http://www.w3.org/2000/svg" xmlns:xlink="http://www.w3.org/1999/xlink" x="0px" y="0px"
	 width="150px" height="150px" viewBox="0 0 150 150" enable-background="new 0 0 150 150" xml:space="preserve">
<g>
	<defs>
		<rect id="SVGID_1_" x="-608.131" y="-3109.057" width="1365.349" height="4836.09"/>
	</defs>
	<clipPath id="SVGID_2_">
		<use xlink:href="#SVGID_1_"  overflow="visible"/>
	</clipPath>
	
		<line clip-path="url(#SVGID_2_)" fill="none" stroke="#2C926F" stroke-width="2" stroke-linecap="round" stroke-miterlimit="10" x1="28.786" y1="-208.69" x2="118.786" y2="-208.69"/>
	<polygon clip-path="url(#SVGID_2_)" fill="#FFFFFF" points="73.786,-201.195 70.036,-207.69 66.286,-214.185 73.786,-214.185 
		81.286,-214.185 77.536,-207.69 	"/>
	
		<polygon clip-path="url(#SVGID_2_)" fill="none" stroke="#2C926F" stroke-width="2" stroke-linejoin="round" stroke-miterlimit="10" points="
		73.786,-201.195 70.036,-207.69 66.286,-214.185 73.786,-214.185 81.286,-214.185 77.536,-207.69 	"/>
	<g opacity="0.3" clip-path="url(#SVGID_2_)">
		<g>
			<defs>
				<rect id="SVGID_3_" x="-5.457" y="-6.537" width="160.081" height="175.681"/>
			</defs>
			<clipPath id="SVGID_4_">
				<use xlink:href="#SVGID_3_"  overflow="visible"/>
			</clipPath>
			<g clip-path="url(#SVGID_4_)">
				<defs>
					<rect id="SVGID_5_" x="-5.457" y="-6.54" width="160.081" height="175.68"/>
				</defs>
				<clipPath id="SVGID_6_">
					<use xlink:href="#SVGID_5_"  overflow="visible"/>
				</clipPath>
				<g clip-path="url(#SVGID_6_)">
					
						<image overflow="visible" width="667" height="732" xlink:href="5B5A2C7.png"  transform="matrix(0.24 0 0 0.24 -5.4565 -6.5396)">
					</image>
				</g>
			</g>
		</g>
	</g>
	<path clip-path="url(#SVGID_2_)" fill="#FFFFFF" d="M74.544,32.007l40,23.094v46.189l-40,23.094l-40-23.094V55.101L74.544,32.007z
		 M74.544,20.46l-5,2.887l-40,23.094l-5,2.888v5.772v46.189v5.773l5,2.885l40,23.096l5,2.887l5-2.887l40-23.096l5-2.885v-5.773
		V55.101v-5.772l-5-2.888l-40-23.094L74.544,20.46z"/>
	<polygon clip-path="url(#SVGID_2_)" fill="#95CFA6" points="74.472,50.226 50.255,64.171 50.255,92.144 74.472,106.169 
		98.696,92.183 98.696,64.212 	"/>
	<path clip-path="url(#SVGID_2_)" fill="#44BCA8" d="M74.851,50.608l-0.305-18.617c0,0-0.035,0.021-0.043,0.024l-15.743,9.13
		L74.851,50.608z"/>
	<path clip-path="url(#SVGID_2_)" fill="#178F6A" d="M35.607,54.489c-0.687,0.42-1.063,0.65-1.063,0.65l15.714,9.036l24.22-13.919
		l-15.716-9.051L35.607,54.489z"/>
	<polygon clip-path="url(#SVGID_2_)" fill="#007351" points="50.257,64.175 34.542,55.106 34.542,74.868 	"/>
	<polygon clip-path="url(#SVGID_2_)" fill="#00987A" points="50.257,92.112 50.257,64.175 34.542,74.87 34.542,82.397 	"/>
	<polygon clip-path="url(#SVGID_2_)" fill="#44BCA8" points="50.283,92.138 34.544,82.397 34.544,101.315 	"/>
	<path clip-path="url(#SVGID_2_)" fill="#178F6A" d="M74.452,106.13l-15.384,9.32c0,0-21.492-12.424-24.525-14.137l15.715-9.152
		L74.452,106.13z"/>
	<polygon clip-path="url(#SVGID_2_)" fill="#007351" points="74.452,106.13 74.552,124.399 59.068,115.45 	"/>
	<path clip-path="url(#SVGID_2_)" fill="#2AB28C" d="M74.452,106.155l15.162,9.57c0,0-12.377,7.203-15.055,8.658L74.452,106.155z"/>
	<polygon clip-path="url(#SVGID_2_)" fill="#007351" points="74.833,50.608 90.751,41.374 74.55,32.011 	"/>
	<path clip-path="url(#SVGID_2_)" fill="#178F6A" d="M90.747,41.365l-15.895,9.243l23.871,13.616l15.766-9.013
		c-1.568-0.886-4.785-2.899-8.4-5.019c0,0.001-0.004,0.007-0.004,0.007L90.747,41.365z"/>
	<path clip-path="url(#SVGID_2_)" fill="#44BCA8" d="M114.487,75.034L98.724,64.223l15.764-9.035
		C114.487,55.188,114.526,57.862,114.487,75.034"/>
	<path clip-path="url(#SVGID_2_)" fill="#178F6A" d="M74.452,106.179l24.223-13.992l15.869,9.127c0,0-4.74,3.053-24.93,14.41
		L74.452,106.179z"/>
	<polygon clip-path="url(#SVGID_2_)" fill="#00987A" points="98.673,64.2 114.544,75.015 114.544,82.81 98.724,92.21 	"/>
	<path clip-path="url(#SVGID_2_)" fill="#007351" d="M98.673,92.187l15.871-9.389c0,0-0.018,13.023,0,18.516L98.673,92.187z"/>
	<path clip-path="url(#SVGID_2_)" fill="#FFFFFF" d="M79.22,58.902c0,0,14.086,7.339,15.617,8.142v17.758
		c-0.014,0.092-15.617-7.744-15.617-7.744V58.902z M74.671,106.009l4.545-2.6l0.004-21.301l19.479,10.053V64.32L74.659,50.472
		L74.671,106.009z"/>
	<path clip-path="url(#SVGID_2_)" fill="#FFFFFF" d="M70.062,98.892L55.16,90.146c0,0-0.551-0.762-0.642-1.484
		c-0.091-0.721,0.03-19.856,0.03-19.856s0.285-0.842,1.076-1.295c1.076-0.615,14.438-8.608,14.438-8.608V98.892z M74.333,106.083
		V50.305L50.257,64.151v27.987L74.333,106.083z"/>
	<path clip-path="url(#SVGID_2_)" fill="#2C926F" d="M-245.54,777.543h-260c-5.523,0-10-4.477-10-10V457.857c0-5.521,4.477-10,10-10
		h260c5.523,0,10,4.479,10,10v309.686C-235.54,773.066-240.016,777.543-245.54,777.543"/>
	<path clip-path="url(#SVGID_2_)" fill="#2C926F" d="M54.46,777.543h-260c-5.523,0-10-4.477-10-10V457.857c0-5.521,4.477-10,10-10
		h260c5.523,0,10,4.479,10,10v309.686C64.46,773.066,59.984,777.543,54.46,777.543"/>
	<path clip-path="url(#SVGID_2_)" fill="#2C926F" d="M354.46,777.543H94.294c-5.521,0-10-4.477-10-10V457.857
		c0-5.521,4.479-10,10-10H354.46c5.523,0,10,4.479,10,10v309.686C364.46,773.066,359.983,777.543,354.46,777.543"/>
</g>
</svg>
